<svg width="64" height="64" xmlns="http://www.w3.org/2000/svg">

 <g>
  <title>background</title>
  <rect fill="none" id="canvas_background" height="402" width="582" y="-1" x="-1"/>
 </g>
 <g>
  <title>Layer 1</title>
  <path fill="#0e0e0e" id="svg_1" d="m20.1,36l3.4,0c0.3,0 0.6,0.3 0.6,0.6l0,21.4c0,1.1 0.9,2 2,2l7.8,0c1.1,0 2,-0.9 2,-2l0,-21.4c0,-0.3 0.3,-0.6 0.6,-0.6l5.6,0c1,0 1.9,-0.7 2,-1.7l1.3,-7.8c0.2,-1.2 -0.8,-2.4 -2,-2.4l-6.6,0c-0.5,0 -0.9,-0.4 -0.9,-0.9l0,-5c0,-1.3 0.7,-2 2,-2l5.9,0c1.1,0 2,-0.9 2,-2l0,-8c0,-1.1 -0.9,-2 -2,-2l-7.1,0c-13,0 -12.7,10.5 -12.7,12l0,7.3c0,0.3 -0.3,0.6 -0.6,0.6l-3.4,0c-1.1,0 -2,0.9 -2,2l0,7.8c0.1,1.2 1,2.1 2.1,2.1z" class="st0"/>
 </g>
</svg>